<svg xmlns="http://www.w3.org/2000/svg" viewBox="0 0 321.17 337.55"><title>Asset 2</title><path d="M19.24,173.52c.18-37.12,9.61-66.24,28.21-92.42.67-.95,1.82-1.82,1.95-2.84A25.19,25.19,0,0,0,49.05,73c-1.61.37-3.82.21-4.73,1.21a114.74,114.74,0,0,0-8.59,11c-2.52,3.58-5.66,4.67-9.43,2.54-3.48-2-3.73-5.88-.89-10,29.74-43,69.77-70.74,122.17-76.51C216.35-6.28,270.85,19.57,310.4,76.5a14.61,14.61,0,0,1,1.53,2.58c1.45,3.45,1.26,6.71-2.24,8.71s-6.41.89-8.66-2.29c-3.36-4.75-6.71-9.52-10.09-14.26-1.55-2.17-3.64-4.29-6-1.86-.89.92,0,4.06.74,5.88s2.57,3.45,3.83,5.21c2.87,4,2.84,8,0,10.29-3.09,2.46-7.14,1.45-10.17-2.68a136.62,136.62,0,0,0-46.82-40.5c-4-2.09-8.1-3.88-12.19-5.73-2.39-1.08-5.29-2-6.08,1.41-.29,1.26,1.86,4,3.48,4.67a133.26,133.26,0,0,1,44,29.71,21.21,21.21,0,0,1,2.38,2.55c2,2.92,2.34,6-.31,8.62s-6,2.58-8.92,0c-5.75-5.05-11.44-10.17-17.24-15.17-2-1.69-4.34-3.19-6.44-.34s.54,4.28,2.31,6c8.55,8.57,17.21,17,25.37,26,3.68,4,3.11,8.1-.15,10.48s-6.85,1.12-10.06-3.08a131.32,131.32,0,0,0-9.26-11.11c-.89-.93-3.08-.61-4.67-.87.07,1.72-.49,3.86.33,5.08,2.69,4,6.05,7.51,8.84,11.44s2.38,8-.84,10.09-6.67,1.13-9.66-3c-16.2-22.59-38.24-34.25-66-34.13-39.9.17-74.29,32.55-76.93,71.82-2.8,41.6,25.54,77.64,65.89,83.92,29.47,4.58,51.32-7.7,68.57-30.54,5.69-7.54,10.72-15.91,17.64-22.12,14.54-13,31.89-15.73,49.8-7.93,18.3,8,27.67,22.93,28.71,42.76a43.85,43.85,0,0,1-6.18,24.9C287,299.74,246.16,327.6,192.25,335.69c-35.33,5.3-68.94-.87-100.75-17-1.62-.82-3.93-1.56-4.48-2.92-1-2.37-1.82-5.69-.84-7.67.8-1.61,4.32-2.25,6.72-2.53,1.41-.16,3,1.64,4.52,1.81,1.84.2,3.77-.42,5.66-.68-.82-1.72-1.18-4.07-2.53-5-3.65-2.59-7.84-4.39-11.59-6.85q-7.5-4.94-14.63-10.43c-3.53-2.74-4.14-6.85-1.66-9.57,3.07-3.37,6.41-2.89,9.71-.23a137.11,137.11,0,0,0,52.68,26.44c2.47.63,5.31,1.71,6.31-1.62,1.13-3.75-2.08-4.18-4.7-4.9-28.06-7.72-52.55-21.72-70.34-44.87C46.42,223.77,37.18,193.89,39,160.94c0-.66.31-1.48,0-2-.89-1.54-2-3-3-4.42-1.24,1.42-3.42,2.74-3.58,4.27a105.34,105.34,0,0,0,3.44,40c1.89,6.71,4.11,13.33,6.34,19.94,1.45,4.31.46,7.95-2.88,9.41-3.62,1.58-7.13,0-9-4.74C23.57,205.8,19,187.65,19.24,173.52Z"/><path d="M0,164.83c1.81-12.64,3.48-25.3,5.51-37.91.84-5.21,4.15-7.52,8.24-6.19,4.27,1.4,5,4.53,4.08,8.76-6,26.63-6,53.09,2.8,79.21,1.36,4,.15,7-3.59,8.6-3.41,1.5-6.95-.53-8.47-4.78C3.06,197.16,1.12,181.22,0,164.83Z"/><path d="M84.16,302.82a7.72,7.72,0,0,1-15.44.35,7.72,7.72,0,0,1,15.44-.35Z"/><path d="M58.73,296.75a7.16,7.16,0,0,1-7.32-7.67,7.49,7.49,0,0,1,15,.27A7.33,7.33,0,0,1,58.73,296.75Z"/><path d="M65.39,274.56a6.81,6.81,0,1,1,6.81-6.49A6.84,6.84,0,0,1,65.39,274.56Z"/><path d="M28.53,97.6A6.39,6.39,0,0,1,21.78,104a6.69,6.69,0,1,1,.47-13.37A6.53,6.53,0,0,1,28.53,97.6Z"/><path d="M50.53,273.59c0,4.58-2.85,7.33-6.7,7.14-4-.21-6-2.62-6.23-6.42a6.45,6.45,0,0,1,6.78-6.48C48.22,268.18,50.36,270.38,50.53,273.59Z"/><path d="M303,102.22c-.42,3.65-2.26,6.25-6.21,6.33s-6.21-2-6.43-6,2.53-6.91,6.26-6.75C300.59,96,302.54,98.37,303,102.22Z"/><path d="M276.77,97.91c-.4,3.36-2.37,5.63-6.35,5.68a6,6,0,0,1-6.25-6.7c.34-4,2.72-5.91,6.58-5.91C274.31,91,276.87,93.86,276.77,97.91Z"/><path d="M51.5,242.35c-.29,3-2.38,4.94-6,5a5.76,5.76,0,0,1-5.9-6.43c.36-3.73,2.71-5.55,6.32-5.55C49.25,235.42,51.61,238.16,51.5,242.35Z"/><path d="M61.31,255.68c-.49,3.63-2.42,5.95-6.17,5.86s-5.83-2.16-5.75-6,2.19-5.85,5.94-5.84S60.88,252.1,61.31,255.68Z"/><path d="M31,261.79c-1.43-2-4-4.05-3.95-6.05,0-1.73,2.69-4.34,4.67-4.92a4.2,4.2,0,0,1,5.44,4.67c-.21,2.19-2.47,4.18-3.81,6.26Z"/><path d="M261.94,128.61c-1.27-2.06-3.33-4-3.63-6.2-.44-3.24,1.91-5.12,5.25-5s5.56,2.16,4.9,5.34c-.45,2.18-2.66,4-4.08,6Z"/><path d="M21.1,112.66c-2,1.31-4.1,3.82-5.85,3.58s-4.2-3-4.51-5c-.2-1.28,2.82-4.25,4.48-4.31,1.91-.07,3.92,2.22,5.88,3.49Z"/><path d="M306.34,110.82c1.28,1.9,3.63,3.86,3.52,5.69s-2.8,3.25-4.36,4.86c-1.66-1.67-4.24-3.13-4.67-5.07-.32-1.48,2.09-3.56,3.29-5.37Z"/><path d="M315.05,103.45c-1.29-1.78-3.7-3.66-3.57-5.34s2.4-4.43,4.2-4.88a3.92,3.92,0,0,1,4.91,4.62c-.29,2-2.23,3.72-3.43,5.56Z"/><path d="M270.51,141.88c-1.88-3-4-4.94-3.73-6.45s2.89-3.89,4.29-3.77,3.9,2.64,4,4.22S272.79,139.05,270.51,141.88Z"/><path d="M275,142.42c2.11,2.91,4.08,4.45,4.07,6,0,1.31-2.2,3.54-3.55,3.64s-3.66-2-3.81-3.28C271.52,147.25,273.26,145.52,275,142.42Z"/></svg>